<svg width="48" height="48" viewBox="0 0 48 48" fill="none" xmlns="http://www.w3.org/2000/svg">
<g filter="url(#filter0_if_213_142)">
<path fill-rule="evenodd" clip-rule="evenodd" d="M11 2C9.338 2 8 3.338 8 5V43C8 44.662 9.338 46 11 46H37C38.662 46 40 44.662 40 43V14L28 2H11Z" fill="#F44336"/>
</g>
<path fill-rule="evenodd" clip-rule="evenodd" d="M28 2V11C28 11.8952 28.3903 12.6939 29.0083 13.2427L40 24.2344V14L28 2Z" fill="url(#paint0_linear_213_142)"/>
<mask id="mask0_213_142" style="mask-type:luminance" maskUnits="userSpaceOnUse" x="8" y="2" width="32" height="44">
<path d="M11 2C9.338 2 8 3.338 8 5V43C8 44.662 9.338 46 11 46H37C38.662 46 40 44.662 40 43V14L28 2H11Z" fill="white"/>
</mask>
<g mask="url(#mask0_213_142)">
<g filter="url(#filter1_f_213_142)">
<path fill-rule="evenodd" clip-rule="evenodd" d="M40 14H31C29.338 14 28 12.662 28 11V2L40 14Z" fill="#E57373"/>
</g>
</g>
<path opacity="0.2" fill-rule="evenodd" clip-rule="evenodd" d="M8 42.75V43C8 44.662 9.338 46 11 46H37C38.662 46 40 44.662 40 43V42.75C40 44.412 38.662 45.75 37 45.75H11C9.338 45.75 8 44.412 8 42.75Z" fill="#3E2723"/>
<path opacity="0.2" fill-rule="evenodd" clip-rule="evenodd" d="M11 2C9.338 2 8 3.338 8 5V5.25C8 3.588 9.338 2.25 11 2.25H28L39.75 14H40L28 2H11Z" fill="white"/>
<path opacity="0.2" fill-rule="evenodd" clip-rule="evenodd" d="M28 11V11.25C28 12.912 29.338 14.25 31 14.25H40V14H31C29.338 14 28 12.662 28 11Z" fill="#3E2723"/>
<path d="M21 25V35H24C25.65 35 27 33.65 27 32V28C27 26.35 25.65 25 24 25H21ZM24 33H23V27H24C24.55 27 25 27.45 25 28V32C25 32.55 24.55 33 24 33ZM35 27V25H29V35H31V31H34V29H31V27H35ZM13 25V35H15V31H17C18.1 31 19 30.1 19 29V27C19 25.9 18.1 25 17 25H13ZM17 29H15V27H17V29Z" fill="#FAFAFA"/>
<path fill-rule="evenodd" clip-rule="evenodd" d="M11 2C9.338 2 8 3.338 8 5V43C8 44.662 9.338 46 11 46H37C38.662 46 40 44.662 40 43V14L28 2H11Z" fill="url(#paint1_radial_213_142)"/>
<defs>
<filter id="filter0_if_213_142" x="6" y="0" width="36" height="48" filterUnits="userSpaceOnUse" color-interpolation-filters="sRGB">
<feFlood flood-opacity="0" result="BackgroundImageFix"/>
<feBlend mode="normal" in="SourceGraphic" in2="BackgroundImageFix" result="shape"/>
<feColorMatrix in="SourceAlpha" type="matrix" values="0 0 0 0 0 0 0 0 0 0 0 0 0 0 0 0 0 0 127 0" result="hardAlpha"/>
<feOffset/>
<feGaussianBlur stdDeviation="2"/>
<feComposite in2="hardAlpha" operator="arithmetic" k2="-1" k3="1"/>
<feColorMatrix type="matrix" values="0 0 0 0 0 0 0 0 0 0 0 0 0 0 0 0 0 0 1 0"/>
<feBlend mode="normal" in2="shape" result="effect1_innerShadow_213_142"/>
<feGaussianBlur stdDeviation="1" result="effect2_foregroundBlur_213_142"/>
</filter>
<filter id="filter1_f_213_142" x="20" y="-6" width="28" height="28" filterUnits="userSpaceOnUse" color-interpolation-filters="sRGB">
<feFlood flood-opacity="0" result="BackgroundImageFix"/>
<feBlend mode="normal" in="SourceGraphic" in2="BackgroundImageFix" result="shape"/>
<feGaussianBlur stdDeviation="4" result="effect1_foregroundBlur_213_142"/>
</filter>
<linearGradient id="paint0_linear_213_142" x1="28" y1="7" x2="40" y2="19" gradientUnits="userSpaceOnUse">
<stop stop-color="#3E2723" stop-opacity="0.2"/>
<stop offset="1" stop-color="#3E2723" stop-opacity="0"/>
</linearGradient>
<radialGradient id="paint1_radial_213_142" cx="0" cy="0" r="1" gradientUnits="userSpaceOnUse" gradientTransform="translate(8.00001 2) rotate(45) scale(45.2548)">
<stop stop-color="white" stop-opacity="0.1"/>
<stop offset="1" stop-color="white" stop-opacity="0"/>
</radialGradient>
</defs>
</svg>
