<svg width="48" height="48" viewBox="0 0 48 48" fill="none" xmlns="http://www.w3.org/2000/svg">
<path d="M33.057 3H9.5625C8.86692 3.00198 8.20039 3.27918 7.70853 3.77103C7.21668 4.26289 6.93948 4.92942 6.9375 5.625V42.375C6.93948 43.0706 7.21668 43.7371 7.70853 44.229C8.20039 44.7208 8.86692 44.998 9.5625 45H38.4375C39.1331 44.998 39.7996 44.7208 40.2915 44.229C40.7833 43.7371 41.0605 43.0706 41.0625 42.375V10.284L33.057 3ZM33.8445 7.266L36.339 9.5625H33.8445V7.266ZM9.5625 42.375V5.625H31.2195V12.1875H38.439V42.375H9.5625Z" fill="#C2C2C2"/>
<path d="M31.8015 22.6455H12.1875V25.2705H31.8015V22.6455Z" fill="#829EC2"/>
<path d="M26.8305 36.6585H12.1875V39.2835H26.8305V36.6585Z" fill="#829EC2"/>
<path d="M35.8125 29.6445H12.1875V32.2695H35.8125V29.6445Z" fill="#829EC2"/>
<path d="M35.8125 15.345H12.1875V17.97H35.8125V15.345Z" fill="#829EC2"/>
</svg>
