<svg width="48" height="48" viewBox="0 0 48 48" fill="none" xmlns="http://www.w3.org/2000/svg">
<g filter="url(#filter0_if_211_134)">
<path fill-rule="evenodd" clip-rule="evenodd" d="M11 2C9.338 2 8 3.338 8 5V43C8 44.662 9.338 46 11 46H37C38.662 46 40 44.662 40 43V14L28 2H11Z" fill="#4CAF50"/>
</g>
<path fill-rule="evenodd" clip-rule="evenodd" d="M28 2V11C28 11.8952 28.3903 12.6939 29.0083 13.2427L40 24.2344V14L28 2Z" fill="url(#paint0_linear_211_134)"/>
<mask id="mask0_211_134" style="mask-type:luminance" maskUnits="userSpaceOnUse" x="8" y="2" width="32" height="44">
<path d="M11 2C9.338 2 8 3.338 8 5V43C8 44.662 9.338 46 11 46H37C38.662 46 40 44.662 40 43V14L28 2H11Z" fill="white"/>
</mask>
<g mask="url(#mask0_211_134)">
<g filter="url(#filter1_f_211_134)">
<path fill-rule="evenodd" clip-rule="evenodd" d="M40 14H31C29.338 14 28 12.662 28 11V2L40 14Z" fill="#81C784"/>
</g>
</g>
<path opacity="0.2" fill-rule="evenodd" clip-rule="evenodd" d="M8 42.75V43C8 44.662 9.338 46 11 46H37C38.662 46 40 44.662 40 43V42.75C40 44.412 38.662 45.75 37 45.75H11C9.338 45.75 8 44.412 8 42.75Z" fill="#263238"/>
<path opacity="0.2" fill-rule="evenodd" clip-rule="evenodd" d="M11 2C9.338 2 8 3.338 8 5V5.25C8 3.588 9.338 2.25 11 2.25H28L39.75 14H40L28 2H11Z" fill="white"/>
<path opacity="0.2" fill-rule="evenodd" clip-rule="evenodd" d="M28 11V11.25C28 12.912 29.338 14.25 31 14.25H40V14H31C29.338 14 28 12.662 28 11Z" fill="#263238"/>
<path d="M27 33H23V25H21V35H27V33ZM34.5 27L35 25H31C29.9 25 29 25.9 29 27V29C29 30.1 29.9 31 31 31H33V33H29.5L29 35H33C34.1 35 35 34.1 35 33V31C35 29.9 34.1 29 33 29H31V27H34.5ZM19 27.5V25H17V27.5C17 27.8 16.85 28.1 16.6 28.3L16 28.75L15.4 28.3C15.15 28.1 15 27.8 15 27.5V25H13V27.5C13 28.45 13.45 29.35 14.2 29.9L14.35 30L14.2 30.1C13.45 30.65 13 31.55 13 32.5V35H15V32.5C15 32.2 15.15 31.9 15.4 31.7L16 31.25L16.6 31.7C16.85 31.9 17 32.2 17 32.5V35H19V32.5C19 31.55 18.55 30.65 17.8 30.1L17.65 30L17.8 29.9C18.55 29.35 19 28.45 19 27.5Z" fill="#FAFAFA"/>
<path fill-rule="evenodd" clip-rule="evenodd" d="M11 2C9.338 2 8 3.338 8 5V43C8 44.662 9.338 46 11 46H37C38.662 46 40 44.662 40 43V14L28 2H11Z" fill="url(#paint1_radial_211_134)"/>
<defs>
<filter id="filter0_if_211_134" x="6" y="0" width="36" height="48" filterUnits="userSpaceOnUse" color-interpolation-filters="sRGB">
<feFlood flood-opacity="0" result="BackgroundImageFix"/>
<feBlend mode="normal" in="SourceGraphic" in2="BackgroundImageFix" result="shape"/>
<feColorMatrix in="SourceAlpha" type="matrix" values="0 0 0 0 0 0 0 0 0 0 0 0 0 0 0 0 0 0 127 0" result="hardAlpha"/>
<feOffset/>
<feGaussianBlur stdDeviation="2"/>
<feComposite in2="hardAlpha" operator="arithmetic" k2="-1" k3="1"/>
<feColorMatrix type="matrix" values="0 0 0 0 0 0 0 0 0 0 0 0 0 0 0 0 0 0 1 0"/>
<feBlend mode="normal" in2="shape" result="effect1_innerShadow_211_134"/>
<feGaussianBlur stdDeviation="1" result="effect2_foregroundBlur_211_134"/>
</filter>
<filter id="filter1_f_211_134" x="20" y="-6" width="28" height="28" filterUnits="userSpaceOnUse" color-interpolation-filters="sRGB">
<feFlood flood-opacity="0" result="BackgroundImageFix"/>
<feBlend mode="normal" in="SourceGraphic" in2="BackgroundImageFix" result="shape"/>
<feGaussianBlur stdDeviation="4" result="effect1_foregroundBlur_211_134"/>
</filter>
<linearGradient id="paint0_linear_211_134" x1="28" y1="7" x2="40" y2="19" gradientUnits="userSpaceOnUse">
<stop stop-color="#263238" stop-opacity="0.2"/>
<stop offset="1" stop-color="#263238" stop-opacity="0"/>
</linearGradient>
<radialGradient id="paint1_radial_211_134" cx="0" cy="0" r="1" gradientUnits="userSpaceOnUse" gradientTransform="translate(8.00001 2) rotate(45) scale(45.2548)">
<stop stop-color="white" stop-opacity="0.1"/>
<stop offset="1" stop-color="white" stop-opacity="0"/>
</radialGradient>
</defs>
</svg>
